<svg width="0" height="0" class="hidden">
  <symbol xmlns="http://www.w3.org/2000/svg" viewBox="0 0 24 24" id="icon-email">
    <path d="M16 12C16 14.2091 14.2091 16 12 16C9.79086 16 8 14.2091 8 12C8 9.79086 9.79086 8 12 8C14.2091 8 16 9.79086 16 12ZM16 12V13.5C16 14.8807 17.1193 16 18.5 16V16C19.8807 16 21 14.8807 21 13.5V12C21 7.02944 16.9706 3 12 3C7.02944 3 3 7.02944 3 12C3 16.9706 7.02944 21 12 21H16" stroke="#000000" stroke-width="2" stroke-linecap="round" stroke-linejoin="round"></path>
  </symbol>
  <symbol xmlns="http://www.w3.org/2000/svg" viewBox="0 0 24 24" id="icon-map">
    <path d="M5.7 15C4.03377 15.6353 3 16.5205 3 17.4997C3 19.4329 7.02944 21 12 21C16.9706 21 21 19.4329 21 17.4997C21 16.5205 19.9662 15.6353 18.3 15M12 9H12.01M18 9C18 13.0637 13.5 15 12 18C10.5 15 6 13.0637 6 9C6 5.68629 8.68629 3 12 3C15.3137 3 18 5.68629 18 9ZM13 9C13 9.55228 12.5523 10 12 10C11.4477 10 11 9.55228 11 9C11 8.44772 11.4477 8 12 8C12.5523 8 13 8.44772 13 9Z" stroke="#000000" stroke-width="2" stroke-linecap="round" stroke-linejoin="round"></path>
  </symbol>
  <symbol version="1.1" xmlns="http://www.w3.org/2000/svg" viewBox="0 0 32 32" id="icon-phone">
    <title>phone-call</title>
    <path d="M18.037 6.635c-0.011-0.001-0.023-0.001-0.035-0.001-0.414 0-0.75 0.336-0.75 0.75 0 0.399 0.312 0.726 0.706 0.749l0.002 0c3.533 0.231 6.311 3.153 6.311 6.723 0 0.186-0.008 0.37-0.022 0.552l0.002-0.024c0 0.414 0.336 0.75 0.75 0.75s0.75-0.336 0.75-0.75v0c0.009-0.143 0.014-0.31 0.014-0.479 0-4.38-3.397-7.967-7.7-8.269l-0.026-0.001zM17.963 2.749c0.449 0.022 10.998 0.688 10.998 12.635 0 0.414 0.336 0.75 0.75 0.75s0.75-0.336 0.75-0.75v0c0.015-0.238 0.024-0.515 0.024-0.795 0-7.059-5.471-12.841-12.405-13.335l-0.043-0.002c-0.009-0-0.019-0.001-0.029-0.001-0.403 0-0.732 0.314-0.757 0.71l-0 0.002c-0.001 0.011-0.001 0.024-0.001 0.037 0 0.401 0.315 0.729 0.711 0.749l0.002 0zM30.637 23.15c-0.109-0.675-0.334-1.281-0.654-1.823l0.013 0.024c-0.114-0.186-0.301-0.317-0.521-0.353l-0.004-0.001-8.969-1.424c-0.035-0.006-0.076-0.009-0.117-0.009-0.207 0-0.395 0.083-0.531 0.218l0-0c-0.676 0.68-1.194 1.516-1.496 2.451l-0.012 0.044c-4.016-1.64-7.141-4.765-8.742-8.675l-0.038-0.105c0.978-0.314 1.814-0.833 2.493-1.509l-0 0c0.136-0.136 0.22-0.324 0.22-0.531 0-0.041-0.003-0.081-0.010-0.12l0.001 0.004-1.425-8.969c-0.036-0.224-0.167-0.412-0.35-0.524l-0.003-0.002c-0.505-0.301-1.094-0.522-1.724-0.626l-0.029-0.004c-0.315-0.070-0.677-0.111-1.048-0.111-0.025 0-0.050 0-0.075 0.001l0.004-0h-0.006c-3.497 0.024-6.326 2.855-6.347 6.351v0.002c0.015 12.761 10.355 23.102 23.115 23.117h0.002c3.5-0.023 6.331-2.854 6.354-6.351v-0.002c0-0.020 0-0.044 0-0.068 0-0.356-0.036-0.703-0.106-1.038l0.006 0.033zM24.383 29.076c-11.933-0.014-21.602-9.684-21.616-21.616v-0.001c0.019-2.673 2.182-4.835 4.854-4.853h0.002c0.016-0 0.036-0 0.055-0 0.272 0 0.537 0.030 0.793 0.086l-0.024-0.005c0.366 0.060 0.695 0.161 1.003 0.3l-0.025-0.010 1.302 8.202c-0.628 0.528-1.404 0.901-2.257 1.050l-0.029 0.004c-0.355 0.064-0.62 0.37-0.62 0.739 0 0.088 0.015 0.172 0.043 0.25l-0.002-0.005c1.772 5.072 5.695 8.994 10.646 10.729l0.121 0.037c0.073 0.026 0.157 0.041 0.245 0.041 0.368 0 0.674-0.265 0.737-0.615l0.001-0.005c0.153-0.882 0.526-1.658 1.061-2.295l-0.006 0.007 8.201 1.303c0.133 0.294 0.237 0.636 0.296 0.994l0.003 0.024c0.046 0.219 0.073 0.471 0.073 0.729 0 0.018-0 0.035-0 0.053l0-0.003c-0.016 2.675-2.179 4.84-4.852 4.859h-0.002z"></path>
  </symbol>
</svg>